Patient4_TMGait_0pt3_01_right_21_GRF.mot
version=1
nRows=64
nColumns=19
inDegrees=no
endheader
time	F1x	F1y	F1z	M1x	M1y	M1z	F2x	F2y	F2z	M2x	M2y	M2z	EC1x	EC1y	EC1z	EC2x	EC2y	EC2z
38.39	-0.24334	784.9719	47.0835	-298.5443	-44.8666	754.5892	0.64797	-8.7661	-0.99096	-1.5636	0.15629	-3.4316	-0.0592	0.0182	-0.0073	-0.0462	0.0165	0.9585
38.4089	-2.2491	806.0549	48.7549	-306.3229	-46.6549	772.4533	0.41548	-5.6549	-0.59616	-0.94027	0.062512	-2.0684	-0.0592	0.0182	-0.0073	-0.0462	0.0165	0.9585
38.4279	-4.0551	829.1949	50.5747	-314.7545	-48.4314	791.9261	0.2111	-2.9696	-0.2697	-0.40211	-0.0063079	-0.86229	-0.0592	0.0182	-0.0073	-0.0462	0.0165	0.9585
38.4468	-5.428	851.8308	52.419	-322.8571	-50.0138	810.6386	0.048344	-0.88161	-0.030036	0.018093	-0.048879	0.097028	-0.0592	0.0182	-0.0073	-0.0462	0.0165	0.9585
38.4657	-6.1836	870.9934	54.1715	-329.505	-51.2416	825.8308	-0.071122	0.59546	0.12973	0.31695	-0.072065	0.79552	-0.0592	0.0182	-0.0073	-0.0462	0.0165	0.9585
38.4846	-6.2059	883.7977	55.7214	-333.611	-51.984	834.8393	-0.15107	1.5298	0.229	0.50621	-0.084895	1.2561	-0.0592	0.0182	-0.0073	-0.0462	0.0165	0.9585
38.5036	-5.4641	888.0385	56.9634	-334.3522	-52.1469	835.6587	-0.19865	2.0161	0.28652	0.60108	-0.091881	1.5069	-0.0592	0.0182	-0.0073	-0.0462	0.0165	0.9585
38.5225	-4.004	882.6645	57.8107	-331.349	-51.6825	827.3751	-0.22281	2.1421	0.31952	0.61297	-0.098959	1.5622	-0.0592	0.0182	-0.0073	-0.0462	0.0165	0.9585
38.5414	-1.9209	867.9816	58.2156	-324.7391	-50.5974	810.3341	-0.23121	1.9691	0.34549	0.54618	-0.11808	1.4138	-0.0592	0.0182	-0.0073	-0.0462	0.0165	0.9585
38.5604	0.66951	845.6297	58.1821	-315.1659	-48.9535	786.109	-0.23079	1.5271	0.37781	0.39818	-0.16009	1.0382	-0.0592	0.0182	-0.0073	-0.0462	0.0165	0.9585
38.5793	3.6363	818.3321	57.7714	-303.6843	-46.8703	757.2623	-0.22375	0.8223	0.42343	0.162	-0.23174	0.40915	-0.0592	0.0182	-0.0073	-0.0462	0.0165	0.9585
38.5982	6.8567	789.4258	57.0932	-291.5878	-44.5054	726.8999	-0.20813	-0.15032	0.48249	-0.16992	-0.32977	-0.49919	-0.0592	0.0182	-0.0073	-0.0462	0.0165	0.9585
38.6171	10.2254	762.2828	56.2709	-280.1928	-42.0177	698.1222	-0.17741	-1.3804	0.54951	-0.598	-0.44394	-1.689	-0.0592	0.0182	-0.0073	-0.0462	0.0165	0.9585
38.6361	13.6599	739.7617	55.4111	-270.626	-39.5387	673.5213	-0.12372	-2.8043	0.60956	-1.1021	-0.55521	-3.0966	-0.0592	0.0182	-0.0073	-0.0462	0.0165	0.9585
38.655	17.1166	723.8077	54.5939	-263.6643	-37.157	654.8246	-0.038393	-4.2562	0.63592	-1.6241	-0.63414	-4.5482	-0.0592	0.0182	-0.0073	-0.0462	0.0165	0.9585
38.6739	20.5931	715.2378	53.8771	-259.646	-34.9153	642.7145	0.084812	-5.4113	0.58722	-2.0481	-0.6392	-5.7103	-0.0592	0.0182	-0.0073	-0.0462	0.0165	0.9585
38.6929	24.0972	713.6679	53.2958	-258.4383	-32.826	636.8011	0.24393	-5.7415	0.40718	-2.1827	-0.51205	-6.0406	-0.0592	0.0182	-0.0073	-0.0462	0.0165	0.9585
38.7118	27.6258	717.628	52.8713	-259.4795	-30.8934	635.7528	0.42809	-4.4825	0.029008	-1.7477	-0.17711	-4.7519	-0.0592	0.0182	-0.0073	-0.0462	0.0165	0.9585
38.7307	31.1538	724.8679	52.6266	-261.8955	-29.1342	637.5894	0.61163	-0.62866	-0.61928	-0.37186	0.45265	-0.8034	-0.0592	0.0182	-0.0073	-0.0462	0.0165	0.9585
38.7496	34.6016	732.7276	52.5791	-264.6487	-27.5822	640.026	0.74614	7.0218	-1.5947	2.3894	1.4598	7.0514	-0.0592	0.0182	-0.0073	-0.0462	0.0165	0.9585
38.7686	37.8187	738.5285	52.7125	-266.6941	-26.2721	640.8278	0.75453	19.7173	-2.9149	7.0014	2.898	20.1108	-0.0592	0.0182	-0.0073	-0.0462	0.0165	0.9585
38.7875	40.6056	739.9511	52.9467	-267.129	-25.2079	638.1268	0.52922	38.4607	-4.5228	13.8439	4.7536	39.4202	-0.0592	0.0182	-0.0073	-0.0462	0.0165	0.9585
38.8064	42.7495	735.283	53.1405	-265.2918	-24.3547	630.6059	-0.069168	63.5369	-6.2381	23.0384	6.8908	65.288	-0.0592	0.0182	-0.0073	-0.0462	0.0165	0.9585
38.8254	44.0719	723.547	53.1241	-260.8118	-23.6461	617.5671	-1.2647	93.9105	-7.7298	34.2285	9.0423	96.6563	-0.0592	0.0182	-0.0073	-0.0462	0.0165	0.9585
38.8443	44.5059	704.6399	52.7439	-253.6567	-22.9931	599.0085	-3.3172	126.9662	-8.7279	46.467	11.0221	130.8446	-0.0592	0.0182	-0.0073	-0.0462	0.0165	0.9585
38.8632	44.1664	679.4647	51.9272	-244.1764	-22.3101	575.7047	-6.1737	159.1942	-9.3833	58.44	12.9616	164.2639	-0.0592	0.0182	-0.0073	-0.0462	0.0165	0.9585
38.8821	43.3402	649.7737	50.7277	-233.0376	-21.5491	549.062	-9.4773	188.026	-9.8665	69.1681	14.8984	194.2896	-0.0592	0.0182	-0.0073	-0.0462	0.0165	0.9585
38.9011	42.3809	617.6584	49.2622	-221.0331	-20.6851	520.7198	-12.9148	213.0917	-10.3129	78.4819	16.8559	220.5733	-0.0592	0.0182	-0.0073	-0.0462	0.0165	0.9585
38.92	41.5824	584.9545	47.5779	-208.862	-19.6562	492.1043	-16.3394	235.6345	-10.8243	86.8128	18.8851	244.4368	-0.0592	0.0182	-0.0073	-0.0462	0.0165	0.9585
38.9389	41.111	552.8363	45.6218	-196.9813	-18.3621	464.1199	-19.6954	257.2978	-11.464	94.7452	21.0295	267.5959	-0.0592	0.0182	-0.0073	-0.0462	0.0165	0.9585
38.9579	40.9905	521.7188	43.3286	-185.5615	-16.7396	437.0673	-22.9284	279.2748	-12.2507	102.7044	23.2823	291.2652	-0.0592	0.0182	-0.0073	-0.0462	0.0165	0.9585
38.9768	41.1178	491.4237	40.6945	-174.5461	-14.815	410.7885	-25.9539	302.0653	-13.2029	110.8654	25.6198	315.9058	-0.0592	0.0182	-0.0073	-0.0462	0.0165	0.9585
38.9957	41.2942	461.4323	37.7699	-163.743	-12.6821	384.8696	-28.6721	325.6228	-14.393	119.2024	28.0632	341.3798	-0.0592	0.0182	-0.0073	-0.0462	0.0165	0.9585
39.0146	41.2988	431.1231	34.6262	-152.9144	-10.4599	358.8238	-31.0032	349.6602	-15.9274	127.6046	30.6744	367.2714	-0.0592	0.0182	-0.0073	-0.0462	0.0165	0.9585
39.0336	40.9328	399.9426	31.3312	-141.8429	-8.2597	332.2226	-32.9013	374.0503	-17.8583	136.0288	33.4855	393.3107	-0.0592	0.0182	-0.0073	-0.0462	0.0165	0.9585
39.0525	40.0323	367.5065	27.938	-130.3699	-6.1721	304.7672	-34.3525	399.0528	-20.1646	144.584	36.4742	419.6253	-0.0592	0.0182	-0.0073	-0.0462	0.0165	0.9585
39.0714	38.4805	333.6486	24.4756	-118.4151	-4.2564	276.3272	-35.3696	425.2643	-22.8031	153.5075	39.6058	446.7126	-0.0592	0.0182	-0.0073	-0.0462	0.0165	0.9585
39.0904	36.2061	298.4747	20.9732	-105.9978	-2.5577	246.9828	-35.9976	453.3869	-25.7178	163.0791	42.8439	475.2059	-0.0592	0.0182	-0.0073	-0.0462	0.0165	0.9585
39.1093	33.196	262.4227	17.4955	-93.2602	-1.1252	217.0753	-36.3024	483.9397	-28.8279	173.5161	46.1326	505.5837	-0.0592	0.0182	-0.0073	-0.0462	0.0165	0.9585
39.1282	29.5196	226.2543	14.1546	-80.4631	-0.013516	187.1983	-36.3374	516.9944	-32.0305	184.8765	49.3851	537.8944	-0.0592	0.0182	-0.0073	-0.0462	0.0165	0.9585
39.1471	25.3288	190.9586	11.0971	-67.9532	0.72243	158.1228	-36.1197	552.0075	-35.1988	196.999	52.4789	571.5749	-0.0592	0.0182	-0.0073	-0.0462	0.0165	0.9585
39.1661	20.8309	157.5877	8.4721	-56.1039	1.0392	130.6688	-35.6218	587.8544	-38.1668	209.516	55.2376	605.4801	-0.0592	0.0182	-0.0073	-0.0462	0.0165	0.9585
39.185	16.2689	127.0352	6.3767	-45.238	0.94269	105.5275	-34.7635	623.073	-40.7605	221.9388	57.4581	638.1254	-0.0592	0.0182	-0.0073	-0.0462	0.0165	0.9585
39.2039	11.8691	99.8796	4.8185	-35.5699	0.50479	83.1446	-33.4397	656.1983	-42.8559	233.768	58.9778	668.029	-0.0592	0.0182	-0.0073	-0.0462	0.0165	0.9585
39.2229	7.7933	76.3471	3.7158	-27.1888	-0.15251	63.7033	-31.5671	686.0663	-44.4	244.5954	59.7117	694.0316	-0.0592	0.0182	-0.0073	-0.0462	0.0165	0.9585
39.2418	4.1797	56.3922	2.9418	-20.0854	-0.87951	47.1812	-29.1368	712.0481	-45.4092	254.1826	59.6699	715.5491	-0.0592	0.0182	-0.0073	-0.0462	0.0165	0.9585
39.2607	1.2009	39.8122	2.367	-14.1917	-1.5158	33.4306	-26.2741	734.103	-45.9616	262.4803	58.9684	732.6614	-0.0592	0.0182	-0.0073	-0.0462	0.0165	0.9585
39.2796	-0.95757	26.3642	1.8855	-9.4215	-1.9155	22.2666	-23.2697	752.6297	-46.1822	269.575	57.8247	745.9726	-0.0592	0.0182	-0.0073	-0.0462	0.0165	0.9585
39.2986	-2.1744	15.8421	1.434	-5.6983	-1.9898	13.5222	-20.5128	768.2502	-46.2293	275.6195	56.5192	756.3576	-0.0592	0.0182	-0.0073	-0.0462	0.0165	0.9585
39.3175	-2.5363	8.1054	1.0107	-2.9672	-1.7744	7.0785	-18.3744	781.6663	-46.2632	280.7964	55.3297	764.756	-0.0592	0.0182	-0.0073	-0.0462	0.0165	0.9585
39.3364	-2.359	2.9411	0.65632	-1.1473	-1.4201	2.7659	-17.0898	793.5569	-46.4057	285.2956	54.4571	772.0049	-0.0592	0.0182	-0.0073	-0.0462	0.0165	0.9585
39.3554	-1.9134	-0.094181	0.38994	-0.07716	-1.0446	0.22292	-16.6544	804.5204	-46.7159	289.3028	53.9675	778.7377	-0.0592	0.0182	-0.0073	-0.0462	0.0165	0.9585
39.3743	-1.3819	-1.5459	0.20644	0.43767	-0.71157	-0.99923	-16.8205	814.9637	-47.1974	292.9618	53.7957	785.2828	-0.0592	0.0182	-0.0073	-0.0462	0.0165	0.9585
39.3932	-0.87885	-1.9375	0.091416	0.58305	-0.44911	-1.3321	-17.2359	824.8655	-47.818	296.2833	53.8085	791.4996	-0.0592	0.0182	-0.0073	-0.0462	0.0165	0.9585
39.4121	-0.46481	-1.7126	0.026492	0.51689	-0.26364	-1.145	-17.563	833.6674	-48.5123	299.099	53.851	796.7343	-0.0592	0.0182	-0.0073	-0.0462	0.0165	0.9585
39.4311	-0.16496	-1.2213	-0.0037556	0.36227	-0.15022	-0.73556	-17.5344	840.4341	-49.1749	301.1096	53.7563	800.0036	-0.0592	0.0182	-0.0073	-0.0462	0.0165	0.9585
39.45	0.017894	-0.72428	-0.01036	0.21156	-0.097623	-0.33025	-16.9927	844.128	-49.6725	301.9774	53.3647	800.2725	-0.0592	0.0182	-0.0073	-0.0462	0.0165	0.9585
39.4689	0.095207	-0.40988	-0.0018057	0.13095	-0.092313	-0.10076	-15.9022	843.8886	-49.8601	301.4259	52.5398	796.718	-0.0592	0.0182	-0.0073	-0.0462	0.0165	0.9585
39.4879	0.089678	-0.40364	0.015105	0.16443	-0.11732	-0.1664	-14.3067	839.2782	-49.6081	299.3265	51.1816	788.9452	-0.0592	0.0182	-0.0073	-0.0462	0.0165	0.9585
39.5068	0.030723	-0.77901	0.033061	0.33941	-0.15287	-0.59983	-12.2839	830.4113	-48.8387	295.7431	49.2465	777.0861	-0.0592	0.0182	-0.0073	-0.0462	0.0165	0.9585
39.5257	-0.04763	-1.563	0.040151	0.66739	-0.17587	-1.4377	-9.9055	817.9047	-47.5537	290.9144	46.7627	761.7375	-0.0592	0.0182	-0.0073	-0.0462	0.0165	0.9585
39.5446	-0.10414	-2.7236	0.022822	1.1359	-0.16148	-2.6574	-7.2201	802.7209	-45.8281	285.1983	43.8168	743.8018	-0.0592	0.0182	-0.0073	-0.0462	0.0165	0.9585
39.5636	-0.090087	-4.1353	-0.032536	1.6965	-0.079964	-4.1353	-4.2473	785.9788	-43.7835	279.0032	40.5268	724.3059	-0.0592	0.0182	-0.0073	-0.0462	0.0165	0.9585
39.5825	0.049813	-5.5379	-0.13701	2.2469	0.10266	-5.6114	-0.97572	768.7906	-41.5636	272.7292	37.0213	704.256	-0.0592	0.0182	-0.0073	-0.0462	0.0165	0.9585
